# xmcd
#
# Track frame offsets:
#	150
#	19757
#	38533
#	63230
#	77535
#	94506
#	113825
#	121479
#	143134
#
# Disc length: 2249 seconds
# Revision: 0
# Processed by: cddbd v1.5.2PL0 Copyright (c) Steve Scherf et al.
# Submitted via: dBpowerAMP V12.0
#
DISCID=6608c709
DTITLE=Abysmal Dawn - Programmed to Consume
DYEAR=2008
DGENRE=Metal
TTITLE0=Programmed to Consume
TTITLE1=Compulsory Resurrection
TTITLE2=Twighlight's Fallen
TTITLE3=Grotesque Modern Art
TTITLE4=A Remission of Life
TTITLE5=The Descent
TTITLE6=Aeon Aomegas
TTITLE7=Cease to Comprehend
TTITLE8=Walk the Path of Fire
EXTD=
EXTT0=
EXTT1=
EXTT2=
EXTT3=
EXTT4=
EXTT5=
EXTT6=
EXTT7=
EXTT8=
PLAYORDER=
